<?xml version="1.0" encoding="utf-8"?>
<!-- Generator: Adobe Illustrator 27.0.0, SVG Export Plug-In . SVG Version: 6.00 Build 0)  -->
<svg version="1.1" id="Ebene_2_00000006706426554699202430000006387997126807103906_"
	 xmlns="http://www.w3.org/2000/svg" xmlns:xlink="http://www.w3.org/1999/xlink" x="0px" y="0px" viewBox="0 0 679 117.6"
	 style="enable-background:new 0 0 679 117.6;" xml:space="preserve">
<style type="text/css">
	.st0{fill:#118EFF;}
	.st1{fill:#5732CE;}
	.st2{fill:#07BCFA;}
	.st3{fill:#04DCF9;}
	.st4{fill:#7E62FF;}
	.st5{fill:#9660D7;}
</style>
<g id="Ebene_1-2">
	<g>
		<g>
			<g>
				<path class="st0" d="M372.2,35.6h-18.2L349.8,47h-5.9l16.6-43.6h5L382.2,47h-5.9L372.2,35.6z M355.7,30.9h14.8l-7.4-20.4
					L355.7,30.9L355.7,30.9z"/>
				<path class="st0" d="M402.9,19.6c-0.8-0.1-1.7-0.2-2.7-0.2c-3.6,0-6.1,1.6-7.4,4.6v23h-5.5V14.6h5.4l0.1,3.7
					c1.8-2.9,4.4-4.3,7.7-4.3c1.1,0,1.9,0.1,2.4,0.4L402.9,19.6L402.9,19.6z"/>
				<path class="st0" d="M420.4,43.1c2,0,3.7-0.6,5.2-1.8c1.5-1.2,2.3-2.7,2.4-4.5h5.2c-0.1,1.9-0.7,3.6-1.9,5.3
					c-1.2,1.7-2.7,3-4.7,4c-2,1-4,1.5-6.2,1.5c-4.4,0-7.9-1.5-10.5-4.4c-2.6-2.9-3.9-7-3.9-12.1v-0.9c0-3.1,0.6-6,1.7-8.4
					c1.2-2.4,2.8-4.4,5-5.7c2.2-1.4,4.7-2,7.7-2c3.6,0,6.6,1.1,9.1,3.3c2.4,2.2,3.7,5,3.8,8.5H428c-0.2-2.1-0.9-3.8-2.4-5.2
					c-1.4-1.3-3.2-2-5.3-2c-2.8,0-5,1-6.5,3c-1.6,2-2.3,4.9-2.3,8.8v1c0,3.7,0.8,6.6,2.3,8.6C415.3,42.1,417.5,43.1,420.4,43.1
					L420.4,43.1z"/>
				<path class="st0" d="M445,18.6c2.4-3,5.6-4.5,9.6-4.5c6.8,0,10.3,3.9,10.3,11.6V47h-5.5V25.6c0-2.3-0.6-4.1-1.6-5.2
					c-1-1.1-2.7-1.7-4.9-1.7c-1.8,0-3.4,0.5-4.7,1.4c-1.4,1-2.4,2.2-3.2,3.8V47h-5.5V1.1h5.5L445,18.6L445,18.6z"/>
				<path class="st0" d="M473.2,6.1c0-0.9,0.3-1.7,0.8-2.3c0.6-0.6,1.4-0.9,2.4-0.9c1.1,0,1.9,0.3,2.4,0.9c0.6,0.6,0.8,1.4,0.8,2.3
					s-0.3,1.6-0.8,2.2c-0.6,0.6-1.4,0.9-2.4,0.9c-1.1,0-1.9-0.3-2.4-0.9C473.5,7.7,473.2,7,473.2,6.1z M479.2,47h-5.5V14.6h5.5V47
					L479.2,47z"/>
				<path class="st0" d="M495.6,6.8v7.8h6v4.3h-6V39c0,1.3,0.3,2.3,0.8,2.9c0.5,0.7,1.5,1,2.8,1c0.6,0,1.5-0.1,2.6-0.4V47
					c-1.5,0.4-2.9,0.6-4.2,0.6c-2.5,0-4.3-0.8-5.6-2.2c-1.3-1.5-1.9-3.6-1.9-6.4V18.9h-5.9v-4.3h5.9V6.8H495.6L495.6,6.8z"/>
				<path class="st0" d="M521.5,47.6c-4.4,0-8-1.4-10.7-4.3c-2.8-2.9-4.1-6.7-4.1-11.6v-1c0-3.2,0.6-6.1,1.8-8.6
					c1.2-2.5,2.9-4.5,5.1-5.9c2.2-1.4,4.6-2.1,7.2-2.1c4.2,0,7.5,1.4,9.8,4.2c2.3,2.8,3.5,6.7,3.5,11.9v2.3h-21.9
					c0.1,3.2,1,5.8,2.8,7.7c1.8,2,4.1,2.9,6.8,2.9c2,0,3.6-0.4,5-1.2c1.4-0.8,2.5-1.9,3.6-3.2l3.4,2.6
					C531,45.5,526.9,47.6,521.5,47.6L521.5,47.6z M520.8,18.6c-2.2,0-4.1,0.8-5.6,2.4c-1.5,1.6-2.4,3.9-2.8,6.8h16.2v-0.4
					c-0.2-2.8-0.9-5-2.3-6.5C525,19.4,523.1,18.6,520.8,18.6z"/>
				<path class="st0" d="M553.5,43.1c2,0,3.7-0.6,5.2-1.8c1.5-1.2,2.3-2.7,2.4-4.5h5.2c-0.1,1.9-0.7,3.6-1.9,5.3
					c-1.2,1.7-2.7,3-4.7,4c-2,1-4,1.5-6.2,1.5c-4.4,0-7.9-1.5-10.5-4.4c-2.6-2.9-3.9-7-3.9-12.1v-0.9c0-3.1,0.6-6,1.7-8.4
					s2.8-4.4,5-5.7c2.2-1.4,4.7-2,7.7-2c3.6,0,6.6,1.1,9.1,3.3c2.4,2.2,3.7,5,3.8,8.5h-5.2c-0.2-2.1-0.9-3.8-2.4-5.2
					c-1.4-1.3-3.2-2-5.3-2c-2.8,0-5,1-6.5,3c-1.6,2-2.3,4.9-2.3,8.8v1c0,3.7,0.8,6.6,2.3,8.6C548.5,42.1,550.7,43.1,553.5,43.1
					L553.5,43.1z"/>
				<path class="st0" d="M580.1,6.8v7.8h6v4.3h-6V39c0,1.3,0.3,2.3,0.8,2.9c0.5,0.7,1.5,1,2.8,1c0.6,0,1.5-0.1,2.6-0.4V47
					c-1.5,0.4-2.9,0.6-4.2,0.6c-2.5,0-4.3-0.8-5.6-2.2c-1.3-1.5-1.9-3.6-1.9-6.4V18.9h-5.9v-4.3h5.9V6.8H580.1z"/>
				<path class="st0" d="M612.6,43.8c-2.2,2.5-5.3,3.8-9.5,3.8c-3.4,0-6.1-1-7.9-3s-2.7-5-2.7-8.9V14.6h5.5v20.9c0,4.9,2,7.4,6,7.4
					c4.2,0,7-1.6,8.4-4.7V14.6h5.5V47h-5.3L612.6,43.8L612.6,43.8z"/>
				<path class="st0" d="M642.1,19.6c-0.8-0.1-1.7-0.2-2.7-0.2c-3.6,0-6.1,1.6-7.4,4.6v23h-5.5V14.6h5.4l0.1,3.7
					c1.8-2.9,4.4-4.3,7.7-4.3c1.1,0,1.9,0.1,2.4,0.4L642.1,19.6L642.1,19.6z"/>
				<path class="st0" d="M660.6,47.6c-4.4,0-8-1.4-10.7-4.3s-4.1-6.7-4.1-11.6v-1c0-3.2,0.6-6.1,1.8-8.6c1.2-2.5,2.9-4.5,5.1-5.9
					c2.2-1.4,4.6-2.1,7.2-2.1c4.2,0,7.5,1.4,9.8,4.2c2.3,2.8,3.5,6.7,3.5,11.9v2.3h-21.9c0.1,3.2,1,5.8,2.8,7.7
					c1.8,2,4.1,2.9,6.8,2.9c2,0,3.6-0.4,5-1.2c1.4-0.8,2.5-1.9,3.6-3.2l3.4,2.6C670.1,45.5,666,47.6,660.6,47.6L660.6,47.6z
					 M659.9,18.6c-2.2,0-4.1,0.8-5.6,2.4c-1.5,1.6-2.4,3.9-2.8,6.8h16.2v-0.4c-0.2-2.8-0.9-5-2.3-6.5
					C664,19.4,662.2,18.6,659.9,18.6z"/>
			</g>
			<g>
				<path class="st1" d="M370.9,95.9h-15.4l-2.9,8.8h-9.3l15.9-42.6h8.1l16,42.6h-9.3L370.9,95.9L370.9,95.9z M357.9,88.8h10.7
					l-5.4-16L357.9,88.8L357.9,88.8z"/>
				<path class="st1" d="M393.1,73l0.3,3.7c2.3-2.8,5.3-4.2,9.1-4.2c3.4,0,5.9,1,7.5,3c1.6,2,2.5,4.9,2.5,8.8v20.5H404V84.4
					c0-1.8-0.4-3.1-1.2-3.9c-0.8-0.8-2.1-1.2-3.9-1.2c-2.4,0-4.2,1-5.4,3v22.3h-8.5V73L393.1,73L393.1,73z"/>
				<path class="st1" d="M429,65.2V73h5.4v6.2H429V95c0,1.2,0.2,2,0.7,2.5s1.3,0.8,2.6,0.8c0.9,0,1.8-0.1,2.5-0.2v6.4
					c-1.7,0.5-3.4,0.8-5.1,0.8c-5.9,0-9-3-9.1-9V79.2h-4.6V73h4.6v-7.8L429,65.2L429,65.2z"/>
				<path class="st1" d="M439.1,64.8c0-1.3,0.4-2.3,1.3-3.1c0.8-0.8,2-1.2,3.5-1.2c1.5,0,2.6,0.4,3.5,1.2c0.9,0.8,1.3,1.9,1.3,3.1
					c0,1.3-0.4,2.3-1.3,3.2c-0.9,0.8-2,1.2-3.4,1.2c-1.4,0-2.6-0.4-3.4-1.2C439.5,67.2,439.1,66.1,439.1,64.8L439.1,64.8z
					 M448,104.7h-8.5V73h8.5V104.7z"/>
				<path class="st1" d="M483.5,89.2c0,4.9-1.1,8.8-3.3,11.7c-2.2,2.9-5.2,4.4-9,4.4c-3.2,0-5.8-1.1-7.8-3.3v14.9H455V73h7.8
					l0.3,3.1c2.1-2.5,4.7-3.7,8-3.7c3.9,0,6.9,1.4,9.1,4.3c2.2,2.9,3.2,6.9,3.2,11.9L483.5,89.2L483.5,89.2z M475.1,88.5
					c0-2.9-0.5-5.2-1.6-6.8c-1-1.6-2.6-2.4-4.6-2.4c-2.7,0-4.5,1-5.5,3v13c1,2.1,2.9,3.1,5.5,3.1C473,98.5,475.1,95.2,475.1,88.5
					L475.1,88.5z"/>
				<path class="st1" d="M507.1,104.7c-0.4-0.8-0.7-1.7-0.8-2.8c-2.1,2.3-4.7,3.4-8,3.4c-3.1,0-5.7-0.9-7.7-2.7
					c-2-1.8-3.1-4.1-3.1-6.8c0-3.4,1.2-5.9,3.7-7.7c2.5-1.8,6.1-2.7,10.8-2.7h3.9v-1.8c0-1.5-0.4-2.6-1.1-3.5
					c-0.8-0.9-1.9-1.3-3.6-1.3c-1.4,0-2.5,0.3-3.4,1c-0.8,0.7-1.2,1.6-1.2,2.8h-8.5c0-1.8,0.6-3.5,1.7-5.1c1.1-1.6,2.7-2.8,4.8-3.7
					c2.1-0.9,4.4-1.3,7-1.3c3.9,0,7,1,9.3,2.9c2.3,2,3.4,4.7,3.4,8.3v13.7c0,3,0.4,5.3,1.3,6.8v0.5L507.1,104.7L507.1,104.7z
					 M500.1,98.8c1.3,0,2.4-0.3,3.5-0.8c1.1-0.6,1.8-1.3,2.3-2.2v-5.4h-3.2c-4.2,0-6.5,1.5-6.8,4.4l0,0.5c0,1.1,0.4,1.9,1.1,2.6
					C497.8,98.5,498.8,98.8,500.1,98.8L500.1,98.8z"/>
				<path class="st1" d="M531,65.2V73h5.4v6.2H531V95c0,1.2,0.2,2,0.7,2.5s1.3,0.8,2.6,0.8c0.9,0,1.8-0.1,2.5-0.2v6.4
					c-1.7,0.5-3.4,0.8-5.1,0.8c-5.9,0-9-3-9.1-9V79.2H518V73h4.6v-7.8L531,65.2L531,65.2z"/>
				<path class="st1" d="M551.3,65.2V73h5.4v6.2h-5.4V95c0,1.2,0.2,2,0.7,2.5s1.3,0.8,2.6,0.8c0.9,0,1.8-0.1,2.5-0.2v6.4
					c-1.7,0.5-3.4,0.8-5.1,0.8c-5.9,0-9-3-9.1-9V79.2h-4.6V73h4.6v-7.8L551.3,65.2L551.3,65.2z"/>
				<path class="st1" d="M576,105.3c-4.6,0-8.4-1.4-11.3-4.3c-2.9-2.9-4.4-6.6-4.4-11.4v-0.8c0-3.2,0.6-6,1.8-8.5
					c1.2-2.5,3-4.4,5.2-5.8s4.8-2,7.7-2c4.3,0,7.7,1.4,10.2,4.1c2.5,2.7,3.7,6.6,3.7,11.6v3.5h-20.2c0.3,2.1,1.1,3.7,2.5,5
					c1.4,1.2,3.1,1.9,5.2,1.9c3.3,0,5.8-1.2,7.6-3.5l4.2,4.7c-1.3,1.8-3,3.2-5.2,4.2C581.1,104.8,578.6,105.3,576,105.3L576,105.3z
					 M575.1,79.3c-1.7,0-3,0.6-4.1,1.7c-1,1.1-1.7,2.8-2,4.9h11.8v-0.7c0-1.9-0.5-3.3-1.5-4.4C578.2,79.8,576.8,79.3,575.1,79.3
					L575.1,79.3z"/>
				<path class="st1" d="M611.7,81c-1.2-0.2-2.2-0.2-3-0.2c-3.2,0-5.3,1.1-6.3,3.2v20.7h-8.5V73h8l0.2,3.8c1.7-2.9,4-4.4,7.1-4.4
					c0.9,0,1.8,0.1,2.6,0.4L611.7,81L611.7,81z"/>
				<path class="st1" d="M623.5,73l0.3,3.7c2.3-2.8,5.3-4.2,9.1-4.2c3.4,0,5.9,1,7.5,3c1.6,2,2.5,4.9,2.5,8.8v20.5h-8.5V84.4
					c0-1.8-0.4-3.1-1.2-3.9c-0.8-0.8-2.1-1.2-3.9-1.2c-2.4,0-4.2,1-5.4,3v22.3h-8.5V73L623.5,73L623.5,73z"/>
				<path class="st1" d="M666.5,95.9c0-1-0.5-1.8-1.5-2.4c-1-0.6-2.7-1.1-4.9-1.6c-7.5-1.6-11.3-4.8-11.3-9.6c0-2.8,1.2-5.2,3.5-7
					c2.3-1.9,5.4-2.8,9.2-2.8c4,0,7.2,0.9,9.6,2.8c2.4,1.9,3.6,4.4,3.6,7.4h-8.5c0-1.2-0.4-2.2-1.2-3c-0.8-0.8-2-1.2-3.7-1.2
					c-1.4,0-2.5,0.3-3.3,1c-0.8,0.6-1.2,1.5-1.2,2.5c0,0.9,0.4,1.7,1.3,2.3c0.9,0.6,2.4,1.1,4.5,1.5c2.1,0.4,3.9,0.9,5.3,1.4
					c4.5,1.6,6.7,4.5,6.7,8.5c0,2.9-1.2,5.2-3.7,7c-2.5,1.8-5.7,2.7-9.6,2.7c-2.7,0-5-0.5-7.1-1.4c-2.1-0.9-3.7-2.2-4.8-3.9
					c-1.2-1.6-1.8-3.4-1.8-5.3h8c0.1,1.5,0.6,2.7,1.7,3.5s2.4,1.2,4.2,1.2c1.6,0,2.8-0.3,3.7-0.9C666,97.8,666.4,96.9,666.5,95.9
					L666.5,95.9z"/>
			</g>
		</g>
		<g>
			
				<rect x="38" y="34.5" transform="matrix(0.7071 -0.7071 0.7071 0.7071 -20.8721 55.3854)" class="st2" width="36.9" height="36.9"/>
			
				<rect x="11.9" y="60.5" transform="matrix(0.7071 -0.7071 0.7071 0.7071 -46.9267 44.5844)" class="st3" width="36.9" height="36.9"/>
			
				<rect x="64.1" y="8.4" transform="matrix(0.7071 -0.7071 0.7071 0.7071 5.2074 66.1793)" class="st0" width="36.9" height="36.9"/>
			
				<rect x="90.2" y="34.5" transform="matrix(0.7071 -0.7071 0.7071 0.7071 -5.6034 92.2741)" class="st0" width="36.9" height="36.9"/>
			
				<rect x="116.2" y="60.5" transform="matrix(0.7071 -0.7071 0.7071 0.7071 -16.3904 118.3286)" class="st0" width="36.9" height="36.9"/>
			
				<rect x="246.6" y="34.4" transform="matrix(0.7071 -0.7071 0.7071 0.7071 40.2279 202.868)" class="st4" width="36.9" height="36.9"/>
			
				<rect x="272.6" y="8.4" transform="matrix(0.7071 -0.7071 0.7071 0.7071 66.2835 213.6575)" class="st5" width="36.9" height="36.9"/>
			
				<rect x="220.5" y="60.5" transform="matrix(0.7071 -0.7071 0.7071 0.7071 14.1497 192.0633)" class="st1" width="36.9" height="36.9"/>
			
				<rect x="194.4" y="34.4" transform="matrix(0.7071 -0.7071 0.7071 0.7071 24.9539 165.9747)" class="st1" width="36.9" height="36.9"/>
			
				<rect x="168.3" y="8.4" transform="matrix(0.7071 -0.7071 0.7071 0.7071 35.7463 139.9179)" class="st1" width="36.9" height="36.9"/>
		</g>
	</g>
</g>
</svg>
